<mxfile host="app.diagrams.net" modified="2022-05-09T14:51:25.342Z" agent="5.0 (Windows NT 10.0; Win64; x64) AppleWebKit/537.36 (KHTML, like Gecko) Chrome/101.0.4951.54 Safari/537.36 Edg/101.0.1210.39" etag="5syJ_s8S6MPi-JLmmI0q" version="18.0.1" type="github">
  <diagram id="H3dMEFNXAFuzEXS722dg" name="Page-1">
    <mxGraphModel dx="1038" dy="579" grid="1" gridSize="10" guides="1" tooltips="1" connect="1" arrows="1" fold="1" page="1" pageScale="1" pageWidth="850" pageHeight="1100" math="0" shadow="0">
      <root>
        <mxCell id="0" />
        <mxCell id="1" parent="0" />
        <mxCell id="1wdeylZXjHGmHeycg6OC-3" value="" style="edgeStyle=orthogonalEdgeStyle;rounded=0;orthogonalLoop=1;jettySize=auto;html=1;" edge="1" parent="1" source="1wdeylZXjHGmHeycg6OC-1" target="1wdeylZXjHGmHeycg6OC-2">
          <mxGeometry relative="1" as="geometry" />
        </mxCell>
        <mxCell id="1wdeylZXjHGmHeycg6OC-1" value="start" style="rounded=1;whiteSpace=wrap;html=1;" vertex="1" parent="1">
          <mxGeometry x="40" y="40" width="90" height="20" as="geometry" />
        </mxCell>
        <mxCell id="1wdeylZXjHGmHeycg6OC-5" value="" style="edgeStyle=orthogonalEdgeStyle;rounded=0;orthogonalLoop=1;jettySize=auto;html=1;" edge="1" parent="1" source="1wdeylZXjHGmHeycg6OC-2" target="1wdeylZXjHGmHeycg6OC-4">
          <mxGeometry relative="1" as="geometry" />
        </mxCell>
        <mxCell id="1wdeylZXjHGmHeycg6OC-2" value="IF agentIds not empty" style="rhombus;whiteSpace=wrap;html=1;" vertex="1" parent="1">
          <mxGeometry x="45" y="100" width="80" height="80" as="geometry" />
        </mxCell>
        <mxCell id="1wdeylZXjHGmHeycg6OC-7" value="" style="edgeStyle=orthogonalEdgeStyle;rounded=0;orthogonalLoop=1;jettySize=auto;html=1;" edge="1" parent="1" source="1wdeylZXjHGmHeycg6OC-4" target="1wdeylZXjHGmHeycg6OC-6">
          <mxGeometry relative="1" as="geometry" />
        </mxCell>
        <mxCell id="1wdeylZXjHGmHeycg6OC-4" value="call&amp;nbsp;searchTarget" style="rounded=1;whiteSpace=wrap;html=1;fillColor=#d5e8d4;gradientColor=#97d077;strokeColor=#82b366;" vertex="1" parent="1">
          <mxGeometry x="25" y="230" width="120" height="60" as="geometry" />
        </mxCell>
        <mxCell id="1wdeylZXjHGmHeycg6OC-9" value="" style="edgeStyle=orthogonalEdgeStyle;rounded=0;orthogonalLoop=1;jettySize=auto;html=1;" edge="1" parent="1" source="1wdeylZXjHGmHeycg6OC-6" target="1wdeylZXjHGmHeycg6OC-8">
          <mxGeometry relative="1" as="geometry">
            <Array as="points">
              <mxPoint x="170" y="370" />
              <mxPoint x="170" y="70" />
            </Array>
          </mxGeometry>
        </mxCell>
        <mxCell id="1wdeylZXjHGmHeycg6OC-6" value="IF attack range not empty" style="rhombus;whiteSpace=wrap;html=1;" vertex="1" parent="1">
          <mxGeometry x="45" y="330" width="80" height="80" as="geometry" />
        </mxCell>
        <mxCell id="1wdeylZXjHGmHeycg6OC-11" value="YES" style="edgeStyle=orthogonalEdgeStyle;rounded=0;orthogonalLoop=1;jettySize=auto;html=1;" edge="1" parent="1" source="1wdeylZXjHGmHeycg6OC-8" target="1wdeylZXjHGmHeycg6OC-10">
          <mxGeometry relative="1" as="geometry" />
        </mxCell>
        <mxCell id="1wdeylZXjHGmHeycg6OC-15" value="NO" style="edgeStyle=orthogonalEdgeStyle;rounded=0;orthogonalLoop=1;jettySize=auto;html=1;" edge="1" parent="1" source="1wdeylZXjHGmHeycg6OC-8" target="1wdeylZXjHGmHeycg6OC-14">
          <mxGeometry relative="1" as="geometry" />
        </mxCell>
        <mxCell id="1wdeylZXjHGmHeycg6OC-8" value="IF agent ids is single" style="rhombus;whiteSpace=wrap;html=1;" vertex="1" parent="1">
          <mxGeometry x="205" y="30" width="80" height="80" as="geometry" />
        </mxCell>
        <mxCell id="1wdeylZXjHGmHeycg6OC-13" value="" style="edgeStyle=orthogonalEdgeStyle;rounded=0;orthogonalLoop=1;jettySize=auto;html=1;" edge="1" parent="1" source="1wdeylZXjHGmHeycg6OC-10" target="1wdeylZXjHGmHeycg6OC-12">
          <mxGeometry relative="1" as="geometry" />
        </mxCell>
        <mxCell id="1wdeylZXjHGmHeycg6OC-10" value="IF attack rng data has the id&amp;nbsp;" style="rhombus;whiteSpace=wrap;html=1;" vertex="1" parent="1">
          <mxGeometry x="205" y="150" width="80" height="80" as="geometry" />
        </mxCell>
        <mxCell id="1wdeylZXjHGmHeycg6OC-12" value="set flag as true for agent is attack range" style="whiteSpace=wrap;html=1;" vertex="1" parent="1">
          <mxGeometry x="185" y="260" width="120" height="60" as="geometry" />
        </mxCell>
        <mxCell id="1wdeylZXjHGmHeycg6OC-17" value="" style="edgeStyle=orthogonalEdgeStyle;rounded=0;orthogonalLoop=1;jettySize=auto;html=1;" edge="1" parent="1" source="1wdeylZXjHGmHeycg6OC-14" target="1wdeylZXjHGmHeycg6OC-16">
          <mxGeometry relative="1" as="geometry" />
        </mxCell>
        <mxCell id="1wdeylZXjHGmHeycg6OC-14" value="ELSE" style="rhombus;whiteSpace=wrap;html=1;" vertex="1" parent="1">
          <mxGeometry x="340" y="30" width="80" height="80" as="geometry" />
        </mxCell>
        <mxCell id="1wdeylZXjHGmHeycg6OC-19" value="" style="edgeStyle=orthogonalEdgeStyle;rounded=0;orthogonalLoop=1;jettySize=auto;html=1;" edge="1" parent="1" source="1wdeylZXjHGmHeycg6OC-16" target="1wdeylZXjHGmHeycg6OC-18">
          <mxGeometry relative="1" as="geometry" />
        </mxCell>
        <mxCell id="1wdeylZXjHGmHeycg6OC-16" value="FOR all agent ids" style="rhombus;whiteSpace=wrap;html=1;" vertex="1" parent="1">
          <mxGeometry x="340" y="150" width="80" height="80" as="geometry" />
        </mxCell>
        <mxCell id="1wdeylZXjHGmHeycg6OC-21" value="" style="edgeStyle=orthogonalEdgeStyle;rounded=0;orthogonalLoop=1;jettySize=auto;html=1;" edge="1" parent="1" source="1wdeylZXjHGmHeycg6OC-18" target="1wdeylZXjHGmHeycg6OC-20">
          <mxGeometry relative="1" as="geometry" />
        </mxCell>
        <mxCell id="1wdeylZXjHGmHeycg6OC-18" value="IF attack rng data has the id&amp;nbsp;" style="rhombus;whiteSpace=wrap;html=1;" vertex="1" parent="1">
          <mxGeometry x="340" y="260" width="80" height="80" as="geometry" />
        </mxCell>
        <mxCell id="1wdeylZXjHGmHeycg6OC-23" value="" style="edgeStyle=orthogonalEdgeStyle;rounded=0;orthogonalLoop=1;jettySize=auto;html=1;" edge="1" parent="1" source="1wdeylZXjHGmHeycg6OC-20" target="1wdeylZXjHGmHeycg6OC-22">
          <mxGeometry relative="1" as="geometry" />
        </mxCell>
        <mxCell id="1wdeylZXjHGmHeycg6OC-20" value="set flag as true for agent is attack range" style="whiteSpace=wrap;html=1;" vertex="1" parent="1">
          <mxGeometry x="320" y="370" width="120" height="60" as="geometry" />
        </mxCell>
        <mxCell id="1wdeylZXjHGmHeycg6OC-25" value="" style="edgeStyle=orthogonalEdgeStyle;rounded=0;orthogonalLoop=1;jettySize=auto;html=1;" edge="1" parent="1" source="1wdeylZXjHGmHeycg6OC-22" target="1wdeylZXjHGmHeycg6OC-24">
          <mxGeometry relative="1" as="geometry">
            <Array as="points">
              <mxPoint x="450" y="490" />
              <mxPoint x="450" y="110" />
            </Array>
          </mxGeometry>
        </mxCell>
        <mxCell id="1wdeylZXjHGmHeycg6OC-26" style="edgeStyle=orthogonalEdgeStyle;rounded=0;orthogonalLoop=1;jettySize=auto;html=1;entryX=1;entryY=0.5;entryDx=0;entryDy=0;" edge="1" parent="1" source="1wdeylZXjHGmHeycg6OC-22" target="1wdeylZXjHGmHeycg6OC-16">
          <mxGeometry relative="1" as="geometry">
            <Array as="points">
              <mxPoint x="450" y="490" />
              <mxPoint x="450" y="190" />
            </Array>
          </mxGeometry>
        </mxCell>
        <mxCell id="1wdeylZXjHGmHeycg6OC-22" value="break the loop" style="whiteSpace=wrap;html=1;" vertex="1" parent="1">
          <mxGeometry x="320" y="460" width="120" height="60" as="geometry" />
        </mxCell>
        <mxCell id="1wdeylZXjHGmHeycg6OC-28" value="" style="edgeStyle=orthogonalEdgeStyle;rounded=0;orthogonalLoop=1;jettySize=auto;html=1;" edge="1" parent="1" source="1wdeylZXjHGmHeycg6OC-24" target="1wdeylZXjHGmHeycg6OC-27">
          <mxGeometry relative="1" as="geometry" />
        </mxCell>
        <mxCell id="1wdeylZXjHGmHeycg6OC-24" value="return the is target in attack rng boolean" style="whiteSpace=wrap;html=1;" vertex="1" parent="1">
          <mxGeometry x="490" y="80" width="120" height="60" as="geometry" />
        </mxCell>
        <mxCell id="1wdeylZXjHGmHeycg6OC-27" value="end" style="ellipse;whiteSpace=wrap;html=1;" vertex="1" parent="1">
          <mxGeometry x="490" y="200" width="120" height="60" as="geometry" />
        </mxCell>
      </root>
    </mxGraphModel>
  </diagram>
</mxfile>
